<?xml version="1.0" standalone="no"?>
<!DOCTYPE svg PUBLIC "-//W3C//DTD SVG 20010904//EN"
 "http://www.w3.org/TR/2001/REC-SVG-20010904/DTD/svg10.dtd">
<svg version="1.0" xmlns="http://www.w3.org/2000/svg"
 width="700.000000pt" height="700.000000pt" viewBox="0 0 700.000000 700.000000"
 preserveAspectRatio="xMidYMid meet">
<metadata>
Created by potrace 1.11, written by Peter Selinger 2001-2013
</metadata>
<g transform="translate(0.000000,700.000000) scale(0.100000,-0.100000)"
fill="#000000" stroke="none">
<path d="M670 6082 c-219 -17 -455 -118 -623 -268 l-46 -41 1136 -1136 1136
-1137 -1135 -1135 -1136 -1136 37 -35 c89 -86 244 -178 376 -222 332 -111 702
-53 977 153 64 48 2388 2359 2388 2375 0 16 -2333 2336 -2393 2379 -203 148
-468 223 -717 203z"/>
<path d="M3905 6083 c-154 -15 -295 -53 -410 -110 -87 -44 -199 -121 -245
-168 l-34 -36 1134 -1134 1135 -1135 -1135 -1135 -1134 -1134 29 -32 c39 -41
165 -129 240 -167 292 -151 658 -154 953 -9 165 82 178 94 1394 1309 l1168
1168 -1154 1154 c-635 635 -1183 1177 -1218 1204 -181 141 -397 219 -623 226
-38 1 -83 1 -100 -1z"/>
</g>
</svg>
