<?xml version="1.0" encoding="UTF-8" standalone="no"?>
<svg
   xmlns:dc="http://purl.org/dc/elements/1.1/"
   xmlns:cc="http://creativecommons.org/ns#"
   xmlns:rdf="http://www.w3.org/1999/02/22-rdf-syntax-ns#"
   xmlns:svg="http://www.w3.org/2000/svg"
   xmlns="http://www.w3.org/2000/svg"
   xmlns:sodipodi="http://sodipodi.sourceforge.net/DTD/sodipodi-0.dtd"
   xmlns:inkscape="http://www.inkscape.org/namespaces/inkscape"
   width="342.17661"
   height="54.102501"
   viewBox="0 0 342.17661 54.102501"
   id="svg2"
   version="1.1"
   inkscape:version="0.91 r13725"
   sodipodi:docname="Frame 2.svg"
   style="fill:none">
  <metadata
     id="metadata19">
    <rdf:RDF>
      <cc:Work
         rdf:about="">
        <dc:format>image/svg+xml</dc:format>
        <dc:type
           rdf:resource="http://purl.org/dc/dcmitype/StillImage" />
        <dc:title></dc:title>
      </cc:Work>
    </rdf:RDF>
  </metadata>
  <sodipodi:namedview
     pagecolor="#ffffff"
     bordercolor="#666666"
     borderopacity="1"
     objecttolerance="10"
     gridtolerance="10"
     guidetolerance="10"
     inkscape:pageopacity="0"
     inkscape:pageshadow="2"
     inkscape:window-width="1920"
     inkscape:window-height="1147"
     id="namedview17"
     showgrid="false"
     fit-margin-top="0"
     fit-margin-left="0"
     fit-margin-right="0"
     fit-margin-bottom="0"
     inkscape:zoom="0.8974359"
     inkscape:cx="171.2306"
     inkscape:cy="27.24375"
     inkscape:window-x="-8"
     inkscape:window-y="-8"
     inkscape:window-maximized="1"
     inkscape:current-layer="svg2" />
  <g
     clip-path="url(#clip0)"
     id="g4"
     transform="translate(-23.7694,-40.64125)">
    <path
       d="M 63.385,67.6925 39.6156,91.4619 c -4.3758,4.3758 -11.4704,4.3758 -15.8462,0 L 47.5388,67.6925 23.7694,43.9231 c 4.3758,-4.3758 11.4704,-4.3758 15.8462,0 L 63.385,67.6925 Z"
       id="path6"
       inkscape:connector-curvature="0"
       style="fill:#ef1d50" />
    <path
       d="M 97,67.6925 73.2306,91.4619 c -4.3758,4.3758 -11.4704,4.3758 -15.8462,0 L 81.1537,67.6925 57.3844,43.9231 c 4.3758,-4.3758 11.4704,-4.3758 15.8462,0 L 97,67.6925 Z"
       id="path8"
       inkscape:connector-curvature="0"
       style="fill:#ef1d50" />
    <path
       d="m 147.912,88 -8.008,-11.48 c -0.336,0.0373 -0.84,0.056 -1.512,0.056 l -8.848,0 0,11.424 -7.28,0 0,-39.2 16.128,0 c 3.397,0 6.347,0.56 8.848,1.68 2.539,1.12 4.48,2.7253 5.824,4.816 1.344,2.0907 2.016,4.5733 2.016,7.448 0,2.9493 -0.728,5.488 -2.184,7.616 -1.419,2.128 -3.472,3.7147 -6.16,4.76 l 9.016,12.88 -7.84,0 z m -0.168,-25.256 c 0,-2.5013 -0.821,-4.424 -2.464,-5.768 -1.643,-1.344 -4.051,-2.016 -7.224,-2.016 l -8.512,0 0,15.624 8.512,0 c 3.173,0 5.581,-0.672 7.224,-2.016 1.643,-1.3813 2.464,-3.3227 2.464,-5.824 z m 25.96,-4.984 c 4.405,0 7.765,1.064 10.08,3.192 2.352,2.0907 3.528,5.264 3.528,9.52 l 0,17.528 -6.608,0 0,-3.64 c -0.859,1.3067 -2.091,2.3147 -3.696,3.024 -1.568,0.672 -3.472,1.008 -5.712,1.008 -2.24,0 -4.2,-0.3733 -5.88,-1.12 -1.68,-0.784 -2.987,-1.848 -3.92,-3.192 -0.896,-1.3813 -1.344,-2.9307 -1.344,-4.648 0,-2.688 0.989,-4.8347 2.968,-6.44 2.016,-1.6427 5.17,-2.464 9.464,-2.464 l 7.728,0 0,-0.448 c 0,-2.0907 -0.635,-3.696 -1.904,-4.816 -1.232,-1.12 -3.08,-1.68 -5.544,-1.68 -1.68,0 -3.342,0.2613 -4.984,0.784 -1.606,0.5227 -2.968,1.2507 -4.088,2.184 l -2.744,-5.096 c 1.568,-1.1947 3.453,-2.1093 5.656,-2.744 2.202,-0.6347 4.536,-0.952 7,-0.952 z m -0.952,25.536 c 1.754,0 3.304,-0.392 4.648,-1.176 1.381,-0.8213 2.352,-1.9787 2.912,-3.472 l 0,-3.472 -7.224,0 c -4.032,0 -6.048,1.3253 -6.048,3.976 0,1.2693 0.504,2.2773 1.512,3.024 1.008,0.7467 2.408,1.12 4.2,1.12 z m 46.895,-0.896 0,5.6 -25.816,0 0,-4.424 16.408,-19.88 -16.072,0 0,-5.6 25.032,0 0,4.424 -16.464,19.88 16.912,0 z m 34.127,-9.184 c 0,0.4853 -0.037,1.176 -0.112,2.072 l -23.464,0 c 0.411,2.2027 1.475,3.9573 3.192,5.264 1.755,1.2693 3.92,1.904 6.496,1.904 3.286,0 5.992,-1.0827 8.12,-3.248 l 3.752,4.312 c -1.344,1.6053 -3.042,2.8187 -5.096,3.64 -2.053,0.8213 -4.368,1.232 -6.944,1.232 -3.285,0 -6.178,-0.6533 -8.68,-1.96 -2.501,-1.3067 -4.442,-3.1173 -5.824,-5.432 -1.344,-2.352 -2.016,-5.0027 -2.016,-7.952 0,-2.912 0.654,-5.5253 1.96,-7.84 1.344,-2.352 3.192,-4.1813 5.544,-5.488 2.352,-1.3067 5.003,-1.96 7.952,-1.96 2.912,0 5.507,0.6533 7.784,1.96 2.315,1.2693 4.107,3.08 5.376,5.432 1.307,2.3147 1.96,5.0027 1.96,8.064 z m -15.12,-9.856 c -2.24,0 -4.144,0.672 -5.712,2.016 -1.53,1.3067 -2.464,3.0613 -2.8,5.264 l 16.968,0 c -0.298,-2.1653 -1.213,-3.92 -2.744,-5.264 -1.53,-1.344 -3.434,-2.016 -5.712,-2.016 z M 278.718,88 271.046,77.64 263.318,88 l -7.728,0 11.648,-15.176 -11.144,-14.728 7.784,0 7.336,9.8 7.336,-9.8 7.56,0 -11.2,14.616 11.704,15.288 -7.896,0 z m 14.07,0.224 c -0.635,0 -1.195,-0.224 -1.68,-0.672 -0.448,-0.4853 -0.672,-1.064 -0.672,-1.736 0,-0.672 0.224,-1.232 0.672,-1.68 0.485,-0.448 1.045,-0.672 1.68,-0.672 0.634,0 1.176,0.224 1.624,0.672 0.485,0.448 0.728,1.008 0.728,1.68 0,0.672 -0.243,1.2507 -0.728,1.736 -0.448,0.448 -0.99,0.672 -1.624,0.672 z m 36.601,-41.776 0,41.552 -2.744,0 0,-6.888 c -1.158,2.2773 -2.782,4.032 -4.872,5.264 -2.091,1.232 -4.462,1.848 -7.112,1.848 -2.726,0 -5.19,-0.6347 -7.392,-1.904 -2.203,-1.2693 -3.939,-3.024 -5.208,-5.264 -1.232,-2.24 -1.848,-4.7973 -1.848,-7.672 0,-2.8747 0.616,-5.432 1.848,-7.672 1.269,-2.2773 3.005,-4.032 5.208,-5.264 2.202,-1.2693 4.666,-1.904 7.392,-1.904 2.613,0 4.946,0.616 7,1.848 2.09,1.232 3.733,2.9493 4.928,5.152 l 0,-19.096 2.8,0 z m -14.56,39.256 c 2.24,0 4.237,-0.5227 5.992,-1.568 1.792,-1.0453 3.192,-2.5013 4.2,-4.368 1.045,-1.8667 1.568,-3.9947 1.568,-6.384 0,-2.3893 -0.523,-4.5173 -1.568,-6.384 -1.008,-1.8667 -2.408,-3.3227 -4.2,-4.368 -1.755,-1.0453 -3.752,-1.568 -5.992,-1.568 -2.24,0 -4.256,0.5227 -6.048,1.568 -1.755,1.0453 -3.155,2.5013 -4.2,4.368 -1.008,1.8667 -1.512,3.9947 -1.512,6.384 0,2.3893 0.504,4.5173 1.512,6.384 1.045,1.8667 2.445,3.3227 4.2,4.368 1.792,1.0453 3.808,1.568 6.048,1.568 z m 51.061,-11.648 -25.144,0 c 0.074,2.2773 0.653,4.312 1.736,6.104 1.082,1.7547 2.538,3.1173 4.368,4.088 1.866,0.9707 3.957,1.456 6.272,1.456 1.904,0 3.658,-0.336 5.264,-1.008 1.642,-0.7093 3.005,-1.736 4.088,-3.08 l 1.624,1.848 c -1.27,1.5307 -2.875,2.7067 -4.816,3.528 -1.904,0.8213 -3.976,1.232 -6.216,1.232 -2.912,0 -5.507,-0.6347 -7.784,-1.904 -2.278,-1.2693 -4.07,-3.024 -5.376,-5.264 -1.27,-2.24 -1.904,-4.7973 -1.904,-7.672 0,-2.8373 0.597,-5.376 1.792,-7.616 1.232,-2.2773 2.912,-4.0507 5.04,-5.32 2.128,-1.2693 4.517,-1.904 7.168,-1.904 2.65,0 5.021,0.6347 7.112,1.904 2.128,1.232 3.789,2.968 4.984,5.208 1.232,2.24 1.848,4.7787 1.848,7.616 l -0.056,0.784 z M 352.002,61.008 c -2.054,0 -3.902,0.4667 -5.544,1.4 -1.643,0.896 -2.968,2.184 -3.976,3.864 -0.971,1.6427 -1.531,3.5093 -1.68,5.6 l 22.4,0 c -0.112,-2.0907 -0.672,-3.9573 -1.68,-5.6 -1.008,-1.6427 -2.334,-2.9307 -3.976,-3.864 -1.643,-0.9333 -3.491,-1.4 -5.544,-1.4 z"
       id="path10"
       inkscape:connector-curvature="0"
       style="fill:#14181d" />
  </g>
  <defs
     id="defs12">
    <clipPath
       id="clip0">
      <rect
         width="390"
         height="135"
         id="rect15"
         x="0"
         y="0"
         style="fill:#ffffff" />
    </clipPath>
  </defs>
</svg>
